<?xml version="1.0" encoding="UTF-8" standalone="no"?>
<svg width="279.4mm" height="215.9mm"
 viewBox="0 0 3300 2550"
 xmlns="http://www.w3.org/2000/svg" xmlns:xlink="http://www.w3.org/1999/xlink"  version="1.2" baseProfile="tiny">
<defs>
</defs>
<g fill="none" stroke="black" stroke-width="1" fill-rule="evenodd" stroke-linecap="square" stroke-linejoin="bevel" >

<g fill="#ffffff" fill-opacity="1" stroke="none" transform="matrix(1,0,0,1,0,0)"
font-family="Arial" font-size="12" font-weight="400" font-style="normal" 
>
<rect x="0" y="0" width="3300" height="2550"/>
</g>

<g fill="none" stroke="#000000" stroke-opacity="1" stroke-width="1" stroke-linecap="square" stroke-linejoin="bevel" transform="matrix(1,0,0,1,0,0)"
font-family="Arial" font-size="12" font-weight="400" font-style="normal" 
>
</g>

<g fill="#000000" fill-opacity="1" stroke="#000000" stroke-opacity="1" stroke-width="1" stroke-linecap="butt" stroke-linejoin="miter" stroke-miterlimit="2" transform="matrix(1,0,0,1,0,0)"
font-family="Arial" font-size="12" font-weight="400" font-style="normal" 
>
</g>

<g fill="#000000" fill-opacity="1" stroke="#000000" stroke-opacity="1" stroke-width="5" stroke-linecap="round" stroke-linejoin="bevel" transform="matrix(1,0,0,1,0,0)"
font-family="Arial" font-size="12" font-weight="400" font-style="normal" 
>
<polyline fill="none" vector-effect="none" points="2595.89,1798.56 2477.78,1798.56 " />
<polyline fill="none" vector-effect="none" points="2477.78,2211.95 2477.78,1798.56 " />
<polyline fill="none" vector-effect="none" points="2595.89,2211.95 2477.78,2211.95 " />
<polyline fill="none" vector-effect="none" points="2595.89,2211.95 2595.89,1798.56 " />
<polyline fill="none" vector-effect="none" points="2418.72,1680.45 3097.86,1680.45 " />
<polyline fill="none" vector-effect="none" points="3097.86,2330.06 3097.86,1680.45 " />
<polyline fill="none" vector-effect="none" points="2418.72,2330.06 3097.86,2330.06 " />
<polyline fill="none" vector-effect="none" points="2418.72,2330.06 2418.72,1680.45 " />
<polyline fill="none" vector-effect="none" points="3051.07,1587.05 2755.79,1587.05 " />
<polyline fill="none" vector-effect="none" points="2755.79,1398.08 2755.79,1587.05 " />
<polyline fill="none" vector-effect="none" points="3051.07,1398.08 2755.79,1398.08 " />
<polyline fill="none" vector-effect="none" points="3051.07,1398.08 3051.07,1587.05 " />
<polyline fill="none" vector-effect="none" points="3051.07,940.339 2755.79,940.339 " />
<polyline fill="none" vector-effect="none" points="3051.07,751.363 2755.79,751.363 " />
<polyline fill="none" vector-effect="none" points="2755.79,940.339 2755.79,751.363 " />
<polyline fill="none" vector-effect="none" points="3051.07,940.339 3051.07,751.363 " />
<polyline fill="none" vector-effect="none" points="2988.09,1325.14 2988.09,1029.86 " />
<polyline fill="none" vector-effect="none" points="3106.2,1029.86 2988.09,1029.86 " />
<polyline fill="none" vector-effect="none" points="3106.2,1325.14 3106.2,1029.86 " />
<polyline fill="none" vector-effect="none" points="3106.2,1325.14 2988.09,1325.14 " />
<polyline fill="none" vector-effect="none" points="2750.41,1319.61 2750.41,1024.33 " />
<polyline fill="none" vector-effect="none" points="2868.52,1024.33 2750.41,1024.33 " />
<polyline fill="none" vector-effect="none" points="2868.52,1319.61 2868.52,1024.33 " />
<polyline fill="none" vector-effect="none" points="2868.52,1319.61 2750.41,1319.61 " />
<polyline fill="none" vector-effect="none" points="1975.64,1495.77 1975.64,1525.3 " />
<polyline fill="none" vector-effect="none" points="2241.38,1495.77 1975.64,1495.77 " />
<polyline fill="none" vector-effect="none" points="2241.38,1407.19 2241.38,1495.77 " />
<polyline fill="none" vector-effect="none" points="2265.01,1407.19 2241.38,1407.19 " />
<polyline fill="none" vector-effect="none" points="2265.01,1289.08 2265.01,1407.19 " />
<polyline fill="none" vector-effect="none" points="2270.91,1289.08 2265.01,1289.08 " />
<polyline fill="none" vector-effect="none" points="2270.91,1289.08 2270.91,1407.19 " />
<polyline fill="none" vector-effect="none" points="2282.72,1407.19 2270.91,1407.19 " />
<polyline fill="none" vector-effect="none" points="2282.72,1289.08 2282.72,1407.19 " />
<polyline fill="none" vector-effect="none" points="2288.63,1289.08 2282.72,1289.08 " />
<polyline fill="none" vector-effect="none" points="2288.63,1289.08 2288.63,1407.19 " />
<polyline fill="none" vector-effect="none" points="2312.25,1407.19 2288.63,1407.19 " />
<polyline fill="none" vector-effect="none" points="2312.25,1289.08 2312.25,1407.19 " />
<polyline fill="none" vector-effect="none" points="2318.15,1289.08 2312.25,1289.08 " />
<polyline fill="none" vector-effect="none" points="2318.15,1289.08 2318.15,1407.19 " />
<polyline fill="none" vector-effect="none" points="2329.97,1407.19 2318.15,1407.19 " />
<polyline fill="none" vector-effect="none" points="2329.97,1289.08 2329.97,1407.19 " />
<polyline fill="none" vector-effect="none" points="2335.87,1289.08 2329.97,1289.08 " />
<polyline fill="none" vector-effect="none" points="2335.87,1289.08 2335.87,1407.19 " />
<polyline fill="none" vector-effect="none" points="2359.49,1407.19 2335.87,1407.19 " />
<polyline fill="none" vector-effect="none" points="2359.49,1407.19 2359.49,1495.77 " />
<polyline fill="none" vector-effect="none" points="2625.24,1495.77 2359.49,1495.77 " />
<polyline fill="none" vector-effect="none" points="2625.24,1495.77 2625.24,1525.3 " />
<polyline fill="none" vector-effect="none" points="2625.24,1525.3 1975.64,1525.3 " />
<polyline fill="none" vector-effect="none" points="1970.71,1169.47 2620.31,1169.47 " />
<polyline fill="none" vector-effect="none" points="2620.31,945.063 2620.31,1169.47 " />
<polyline fill="none" vector-effect="none" points="1970.71,945.063 1970.71,1169.47 " />
<polyline fill="none" vector-effect="none" points="1970.71,945.063 2620.31,945.063 " />
<polyline fill="none" vector-effect="none" points="2123.32,609.929 2536.7,609.929 " />
<polyline fill="none" vector-effect="none" points="2536.7,834.339 2536.7,609.929 " />
<polyline fill="none" vector-effect="none" points="2123.32,834.339 2536.7,834.339 " />
<polyline fill="none" vector-effect="none" points="2123.32,834.339 2123.32,609.929 " />
</g>

<g fill="none" stroke="#000000" stroke-opacity="1" stroke-width="1" stroke-linecap="square" stroke-linejoin="bevel" transform="matrix(1,0,0,1,0,0)"
font-family="Arial" font-size="12" font-weight="400" font-style="normal" 
>
</g>
</g>
</svg>
